<svg version="1.1" xmlns="http://www.w3.org/2000/svg" width="715" height="407">

<path d="M0 0 C3.01947899 1.35319337 5.11100877 2.86297977 7.44219971 5.20169067 C8.10400238 5.86074402 8.76580505 6.51979736 9.44766235 7.19882202 C10.16263885 7.92098907 10.87761536 8.64315613 11.61425781 9.38720703 C12.37562042 10.14827759 13.13698303 10.90934814 13.92141724 11.69348145 C16.43675604 14.21021356 18.94493661 16.73395584 21.453125 19.2578125 C23.19575111 21.00416872 24.93881931 22.7500839 26.68231201 24.49557495 C31.27013748 29.09103696 35.85192517 33.69247349 40.43249512 38.29516602 C45.10762586 42.99075464 49.78842168 47.68068622 54.46875 52.37109375 C63.65139772 61.57519177 72.8278727 70.78541868 82 80 C80.64926463 83.00696004 79.14209129 85.11309935 76.82522583 87.44892883 C76.17195312 88.11217667 75.51868042 88.7754245 74.84561157 89.45877075 C74.1297287 90.1753183 73.41384583 90.89186584 72.67626953 91.63012695 C71.92162415 92.39309586 71.16697876 93.15606476 70.38946533 93.94215393 C67.89270663 96.46301464 65.38834612 98.97614371 62.8828125 101.48828125 C61.14639559 103.23366101 59.41005834 104.97912003 57.67379761 106.72465515 C54.03414242 110.38080113 50.39011485 114.0325288 46.74365234 117.68188477 C42.0618225 122.36911264 37.39637767 127.07229731 32.7347126 131.77956867 C29.15557863 135.38836772 25.56532045 138.98593785 21.97182846 142.5804348 C20.24608975 144.31039317 18.52449297 146.04449331 16.80707169 147.78270912 C14.41048013 150.20600692 11.99876446 152.61316633 9.58251953 155.0168457 C8.87068512 155.7435144 8.15885071 156.47018311 7.42544556 157.21887207 C6.7665332 157.86802078 6.10762085 158.51716949 5.42874146 159.18598938 C4.85982744 159.75691472 4.29091343 160.32784006 3.7047596 160.91606617 C2 162 2 162 0.00126171 161.86678314 C-2.31751728 160.86247744 -3.65665239 159.72608995 -5.44892883 157.94548035 C-6.11217667 157.29358231 -6.7754245 156.64168427 -7.45877075 155.97003174 C-8.1753183 155.25055359 -8.89186584 154.53107544 -9.63012695 153.78979492 C-10.39309586 153.03529556 -11.15606476 152.2807962 -11.94215393 151.50343323 C-14.46542548 149.0035893 -16.97731228 146.49266578 -19.48828125 143.98046875 C-21.23344297 142.24240371 -22.9789049 140.50464004 -24.72465515 138.76716614 C-28.38228425 135.12299418 -32.03390578 131.47292281 -35.68188477 127.8190918 C-40.36741003 123.12766139 -45.07094508 118.45475691 -49.77956867 113.78652477 C-53.38858141 110.20330087 -56.98612364 106.60873233 -60.5804348 103.01076698 C-62.31052481 101.28237565 -64.04462494 99.55798907 -65.78270912 97.83763695 C-68.20612815 95.43623744 -70.61328098 93.0196374 -73.0168457 90.59838867 C-74.10684875 89.52828049 -74.10684875 89.52828049 -75.21887207 88.43655396 C-75.86802078 87.77619644 -76.51716949 87.11583893 -77.18598938 86.43547058 C-77.75691472 85.86525775 -78.32784006 85.29504492 -78.91606617 84.70755291 C-80 83 -80 83 -79.87083817 81.00279331 C-78.85237574 78.66048699 -77.69086613 77.32149592 -75.88059998 75.51983643 C-75.21450714 74.8496196 -74.54841431 74.17940277 -73.86213684 73.48887634 C-72.75946724 72.40238548 -72.75946724 72.40238548 -71.63452148 71.29394531 C-70.86384338 70.52282913 -70.09316528 69.75171295 -69.2991333 68.95722961 C-66.74683244 66.40702084 -64.18406526 63.86760582 -61.62109375 61.328125 C-59.85067101 59.56329668 -58.0809089 57.7978054 -56.31178284 56.03167725 C-52.12761092 51.85779426 -47.93681067 47.6906449 -43.74275595 43.52669883 C-38.49943091 38.32020051 -33.26645743 33.10333608 -28.03320312 27.88671875 C-18.69709332 18.58279477 -9.35180714 9.28814435 0 0 Z M-4.99055481 26.61729431 C-5.77386421 27.41678246 -5.77386421 27.41678246 -6.57299805 28.23242188 C-7.12938965 28.7883754 -7.68578125 29.34432892 -8.2590332 29.91712952 C-10.10045924 31.76064932 -11.93102632 33.61457585 -13.76171875 35.46875 C-15.03473081 36.7473559 -16.30840584 38.02530203 -17.5827179 39.3026123 C-20.93815244 42.6695122 -24.28448175 46.04532349 -27.62902832 49.42303467 C-31.04218013 52.86685081 -34.46381909 56.30221106 -37.88476562 59.73828125 C-44.59820345 66.48391306 -51.3020578 73.23898435 -58 80 C-56.40591101 83.91314104 -53.72318947 86.57931095 -50.78759766 89.51879883 C-50.25728439 90.05743561 -49.72697113 90.59607239 -49.18058777 91.15103149 C-47.43050498 92.92516096 -45.67289956 94.6915828 -43.9140625 96.45703125 C-42.69331284 97.68674704 -41.47264132 98.91654041 -40.25204468 100.14640808 C-37.69518397 102.71974382 -35.13397491 105.28866602 -32.5703125 107.85522461 C-29.28073103 111.15020669 -26.00763167 114.46106232 -22.73822975 117.77605152 C-20.2245309 120.31942802 -17.6997174 122.85154115 -15.1716423 125.38062096 C-13.95945757 126.59702184 -12.75140963 127.81755941 -11.54756546 129.04221535 C-9.86698036 130.74953784 -8.17144925 132.44047389 -6.47119141 134.12817383 C-5.72604027 134.8955764 -5.72604027 134.8955764 -4.96583557 135.67848206 C-2.4044621 138.25104155 -2.4044621 138.25104155 0.99227905 139.13287354 C3.96820725 137.45368087 6.22454333 135.16623191 8.59472656 132.74584961 C9.14151062 132.19950363 9.68829468 131.65315765 10.25164795 131.09025574 C12.05517657 129.28463897 13.84784979 127.46863268 15.640625 125.65234375 C16.88978654 124.39758637 18.13961257 123.14349018 19.39007568 121.89002991 C22.67810078 118.59055519 25.95701707 115.28217036 29.23413086 111.97186279 C32.58033021 108.5949653 35.93504733 105.22655345 39.2890625 101.85742188 C45.86774957 95.24656856 52.43684703 88.62627305 59 82 C57.40743197 78.08248696 54.71797896 75.42879194 51.77172852 72.49707031 C50.97384918 71.69152458 50.97384918 71.69152458 50.15985107 70.8697052 C48.40467088 69.10065306 46.64218756 67.33910003 44.87890625 65.578125 C43.65561689 64.35094873 42.43255174 63.12354893 41.20970154 61.89593506 C38.64832699 59.32710445 36.08311798 56.76217714 33.51538086 54.19970703 C30.22027081 50.91040505 26.93669477 47.60984914 23.65609837 44.30607986 C21.13491532 41.77019378 18.60687027 39.2412378 16.07676506 36.71425629 C14.86274092 35.49971768 13.65108828 34.28280389 12.4418354 33.06351471 C10.75416276 31.36355527 9.05729063 29.67334963 7.35766602 27.98535156 C6.85730331 27.47734512 6.35694061 26.96933868 5.84141541 26.44593811 C1.35574905 22.02808004 -0.558007 22.2225357 -4.99055481 26.61729431 Z " fill="#FAFDFD" transform="translate(347,71)" data-index="1" style="opacity: 1; visibility: hidden;"></path>
<path d="M0 0 C5.5856465 4.65091959 10.74651353 9.60988363 15.87280273 14.75927734 C16.73213913 15.61846771 17.59147552 16.47765808 18.47685242 17.36288452 C20.81289178 19.69949771 23.14670241 22.03829447 25.4795177 24.37812376 C27.92538015 26.83027328 30.37410926 29.27955687 32.82252502 31.72915649 C37.44962953 36.35935862 42.07418085 40.99210201 46.69780165 45.62578261 C51.96552311 50.90471414 57.236113 56.18077784 62.50693595 61.45661235 C73.3411336 72.30123882 84.17175532 83.14942935 95 94 C93.5635112 97.28198266 91.79657984 99.45082228 89.26681519 101.97369385 C88.10153793 103.14309509 88.10153793 103.14309509 86.91271973 104.33612061 C86.05964233 105.18200745 85.20656494 106.02789429 84.32763672 106.89941406 C83.43001617 107.79732666 82.53239563 108.69523926 81.60757446 109.62036133 C79.14941953 112.07908978 76.68514955 114.53160549 74.21973562 116.98305225 C71.64300592 119.54727454 69.07194356 122.11716645 66.50027466 124.6864624 C61.6311025 129.54941983 56.75685482 134.40725677 51.88076317 139.26327491 C46.32911471 144.79256418 40.78314812 150.32753748 35.23765159 155.86299562 C23.83141152 167.24833386 12.41805704 178.62651247 1 190 C-2.28198266 188.5635112 -4.45082228 186.79657984 -6.97369385 184.26681519 C-8.14309509 183.10153793 -8.14309509 183.10153793 -9.33612061 181.91271973 C-10.18200745 181.05964233 -11.02789429 180.20656494 -11.89941406 179.32763672 C-12.79732666 178.43001617 -13.69523926 177.53239563 -14.62036133 176.60757446 C-17.07908978 174.14941953 -19.53160549 171.68514955 -21.98305225 169.21973562 C-24.54727454 166.64300592 -27.11716645 164.07194356 -29.6864624 161.50027466 C-34.54941983 156.6311025 -39.40725677 151.75685482 -44.26327491 146.88076317 C-49.79256418 141.32911471 -55.32753748 135.78314812 -60.86299562 130.23765159 C-72.24833386 118.83141152 -83.62651247 107.41805704 -95 96 C-90.32250899 90.38023756 -85.32878515 85.19228664 -80.14892578 80.03540039 C-79.27998184 79.16631042 -78.4110379 78.29722046 -77.51576233 77.40179443 C-75.15229056 75.03889655 -72.78663472 72.67822739 -70.41994715 70.31855321 C-67.93977074 67.84466319 -65.46245962 65.36790718 -62.98483276 62.89146423 C-58.30150662 58.21123591 -53.61563911 53.53356074 -48.9288348 48.85681576 C-43.58944522 43.52863564 -38.25292295 38.19758763 -32.91663003 32.86630642 C-21.94758925 21.90769491 -10.97498437 10.95265924 0 0 Z M-5.36663818 16.96549988 C-6.37206917 17.95173843 -6.37206917 17.95173843 -7.39781189 18.957901 C-8.12730545 19.68875412 -8.85679901 20.41960724 -9.60839844 21.17260742 C-10.38097488 21.93510803 -11.15355133 22.69760864 -11.94953918 23.48321533 C-14.51088472 26.01597282 -17.06067567 28.55998976 -19.609375 31.10546875 C-21.37845654 32.86491733 -23.14776691 34.62413585 -24.91729736 36.38313293 C-28.62814198 40.07598934 -32.33278386 43.77497312 -36.03369141 47.4777832 C-40.31391232 51.75980718 -44.61058526 56.02481251 -48.9153192 60.28218001 C-53.0531404 64.37608205 -57.17429714 68.4864237 -61.28931427 72.60323524 C-63.04364611 74.35401704 -64.80286715 76.09991343 -66.56694794 77.84087181 C-69.0287862 80.27344393 -71.47103228 82.72413519 -73.90917969 85.18041992 C-74.64677017 85.90115189 -75.38436066 86.62188385 -76.14430237 87.36445618 C-77.13281441 88.37184341 -77.13281441 88.37184341 -78.14129639 89.39958191 C-78.72089489 89.97754611 -79.30049339 90.55551031 -79.89765549 91.15098858 C-81.23250113 93.00036359 -81.23250113 93.00036359 -80.86957645 95.50195217 C-79.9218989 98.22436243 -78.96680698 99.53788679 -76.94548035 101.56918335 C-75.96763329 102.5661171 -75.96763329 102.5661171 -74.97003174 103.58319092 C-74.25055359 104.29614319 -73.53107544 105.00909546 -72.78979492 105.74365234 C-72.03529556 106.50676727 -71.2807962 107.2698822 -70.50343323 108.05612183 C-68.00590446 110.57635972 -65.4939009 113.08156678 -62.98046875 115.5859375 C-61.24218591 117.32945262 -59.50442515 119.0734884 -57.76716614 120.81802368 C-54.12444271 124.47115976 -50.4743182 128.1166998 -46.8190918 131.75732422 C-42.12593483 136.43326849 -37.45346437 141.12928746 -32.78652477 145.83138084 C-29.20350037 149.43631487 -25.60891451 153.0295395 -22.01076698 156.61937332 C-20.28251376 158.34680397 -18.55812718 160.0781118 -16.83763695 161.81327438 C-14.43632656 164.23191558 -12.01974347 166.6341641 -9.59838867 169.03271484 C-8.88498322 169.7578125 -8.17157776 170.48291016 -7.43655396 171.22998047 C-6.77619644 171.87768402 -6.11583893 172.52538757 -5.43547058 173.19271851 C-4.86525775 173.76234503 -4.29504492 174.33197155 -3.70755291 174.91885948 C-2.05430577 176.20024853 -2.05430577 176.20024853 -0.00279331 175.87041759 C2.33978539 174.85232865 3.67843718 173.69093334 5.48016357 171.88059998 C6.1503804 171.21450714 6.82059723 170.54841431 7.51112366 169.86213684 C8.2354509 169.12702377 8.95977814 168.39191071 9.70605469 167.63452148 C10.47717087 166.86384338 11.24828705 166.09316528 12.04277039 165.2991333 C14.59297916 162.74683244 17.13239418 160.18406526 19.671875 157.62109375 C21.43670332 155.85067101 23.2021946 154.0809089 24.96832275 152.31178284 C29.14220574 148.12761092 33.3093551 143.93681067 37.47330117 139.74275595 C42.67979949 134.49943091 47.89666392 129.26645743 53.11328125 124.03320312 C62.41720523 114.69709332 71.71185565 105.35180714 81 96 C79.6489648 92.99008439 78.14259894 90.8902808 75.8184967 88.55780029 C75.16377884 87.89599762 74.50906097 87.23419495 73.83450317 86.55233765 C73.11704926 85.83736115 72.39959534 85.12238464 71.66040039 84.38574219 C70.90414871 83.62437958 70.14789703 82.86301697 69.36872864 82.07858276 C66.86686383 79.56281413 64.3576333 77.05454837 61.84765625 74.546875 C60.1087006 72.80403387 58.36996962 71.06096853 56.63145447 69.31768799 C52.98728243 65.66605276 49.33925611 62.01832021 45.6887207 58.37304688 C41.00134248 53.69147402 36.32544917 48.99861325 31.65258121 44.30256271 C28.06596532 40.70124999 24.47248394 37.1068507 20.87695122 33.51444244 C19.14936816 31.78634449 17.42416093 30.05586814 15.70134163 28.32302094 C13.29763048 25.90703679 10.88465553 23.50070688 8.46899414 21.09667969 C7.75356445 20.37360626 7.03813477 19.65053284 6.30102539 18.9055481 C5.6434877 18.25502472 4.98595001 17.60450134 4.30848694 16.93426514 C3.73865113 16.36426159 3.16881533 15.79425804 2.58171177 15.20698166 C-0.8313884 12.60249367 -2.77233505 14.39364176 -5.36663818 16.96549988 Z " fill="#01ABB3" transform="translate(348,57)" data-index="2" style="opacity: 1;"></path>

<path d="M0 0 C2.9759282 1.67919267 5.23226428 3.96664163 7.60244751 6.38702393 C8.14923157 6.9333699 8.69601562 7.47971588 9.2593689 8.0426178 C11.06289752 9.84823457 12.85557074 11.66424086 14.64834595 13.48052979 C15.89750749 14.73528717 17.14733352 15.98938335 18.39779663 17.24284363 C21.68582173 20.54231835 24.96473802 23.85070317 28.24185181 27.16101074 C31.58805115 30.53790824 34.94276828 33.90632009 38.29678345 37.27545166 C44.87547052 43.88630497 51.44456798 50.50660048 58.00772095 57.13287354 C56.41363196 61.04601458 53.73091042 63.71218449 50.7953186 66.65167236 C50.26500534 67.19030914 49.73469208 67.72894592 49.18830872 68.28390503 C47.43822593 70.05803449 45.68062051 71.82445633 43.92178345 73.58990479 C42.70103379 74.81962058 41.48036227 76.04941394 40.25976562 77.27928162 C37.70290492 79.85261735 35.14169586 82.42153955 32.57803345 84.98809814 C29.28845197 88.28308022 26.01535262 91.59393585 22.7459507 94.90892506 C20.23225184 97.45230155 17.70743834 99.98441469 15.17936325 102.51349449 C13.96717852 103.72989537 12.75913058 104.95043295 11.55528641 106.17508888 C9.8747013 107.88241137 8.1791702 109.57334743 6.47891235 111.26104736 C5.98214493 111.77264908 5.4853775 112.28425079 4.97355652 112.81135559 C1.62275965 116.091854 1.62275965 116.091854 -0.98455811 116.26574707 C-3.9604863 114.5865544 -6.21682238 112.29910544 -8.58700562 109.87872314 C-9.4071817 109.05920418 -9.4071817 109.05920418 -10.243927 108.22312927 C-12.04745562 106.4175125 -13.84012884 104.60150621 -15.63290405 102.78521729 C-16.8820656 101.5304599 -18.13189163 100.27636372 -19.38235474 99.02290344 C-22.67037983 95.72342872 -25.94929613 92.4150439 -29.22640991 89.10473633 C-32.57260926 85.72783883 -35.92732638 82.35942698 -39.28134155 78.99029541 C-45.86002862 72.3794421 -52.42912608 65.75914659 -58.99227905 59.13287354 C-57.39819007 55.21973249 -54.71546852 52.55356258 -51.77987671 49.61407471 C-51.24956345 49.07543793 -50.71925018 48.53680115 -50.17286682 47.98184204 C-48.42278403 46.20771258 -46.66517861 44.44129074 -44.90634155 42.67584229 C-43.6855919 41.44612649 -42.46492037 40.21633313 -41.24432373 38.98646545 C-38.68746302 36.41312972 -36.12625397 33.84420752 -33.56259155 31.27764893 C-30.27301008 27.98266685 -26.99991073 24.67181122 -23.7305088 21.35682201 C-21.21680995 18.81344552 -18.69199645 16.28133238 -16.16392136 13.75225258 C-14.95173662 12.5358517 -13.74368868 11.31531412 -12.53984451 10.09065819 C-10.85925941 8.3833357 -9.16372831 6.69239964 -7.46347046 5.00469971 C-6.96670303 4.49309799 -6.46993561 3.98149628 -5.95811462 3.45439148 C-2.60731775 0.17389307 -2.60731775 0.17389307 0 0 Z M-5.27426147 17.10845947 C-6.15825119 17.97646179 -7.04224091 18.84446411 -7.95301819 19.73876953 C-8.91840593 20.69778173 -9.88330418 21.65728688 -10.8477478 22.61724854 C-11.83369684 23.59423663 -12.81972591 24.57114396 -13.80583191 25.54797363 C-15.87327599 27.5989089 -17.93626735 29.6542154 -19.99691772 31.7119751 C-22.64180255 34.35147112 -25.30245789 36.97443398 -27.96737194 39.59368515 C-30.0097905 41.60640331 -32.04090494 43.6302403 -34.06902504 45.65735626 C-35.04539566 46.62951136 -36.02590214 47.5975305 -37.01051903 48.5613327 C-38.3848932 49.90894147 -39.74214417 51.27394732 -41.09848022 52.63970947 C-42.26524544 53.79886871 -42.26524544 53.79886871 -43.45558167 54.98144531 C-45.18979029 56.96490977 -45.18979029 56.96490977 -44.97973633 59.14335632 C-43.70156351 61.71860376 -42.11041471 63.41137937 -40.08676147 65.45831299 C-39.25887619 66.30211014 -38.43099091 67.14590729 -37.57801819 68.01527405 C-36.67702896 68.91646469 -35.77603973 69.81765533 -34.8477478 70.74615479 C-33.92641556 71.67510056 -33.00508331 72.60404633 -32.05583191 73.56114197 C-30.10645904 75.52395038 -28.15125988 77.4807307 -26.19223022 79.43389893 C-23.67993865 81.94028138 -21.18641248 84.46446619 -18.69735241 86.99389362 C-16.32136697 89.40189559 -13.92734715 91.79165971 -11.5352478 94.18365479 C-10.64033127 95.09496658 -9.74541473 96.00627838 -8.82337952 96.94520569 C-7.98603775 97.77324203 -7.14869598 98.60127838 -6.28598022 99.45440674 C-5.55175339 100.19068802 -4.81752655 100.9269693 -4.06105042 101.68556213 C-2.1408432 103.32675788 -2.1408432 103.32675788 0.00099182 103.11657715 C2.6462138 101.81988275 4.33317372 100.16631383 6.40908813 98.07208252 C7.69997345 96.78085732 7.69997345 96.78085732 9.01693726 95.46354675 C9.93686462 94.52813553 10.85679199 93.5927243 11.80459595 92.62896729 C12.76229315 91.66567278 13.72065641 90.70304005 14.67965698 89.74104309 C17.19831325 87.21094871 19.70782933 84.67197425 22.21554565 82.13104248 C24.77752827 79.53833676 27.34805596 76.95413398 29.9178772 74.36920166 C34.95621936 69.29871364 39.98495429 64.21879473 45.00772095 59.13287354 C43.52628118 55.69987055 41.58910191 53.4611587 38.9569397 50.82330322 C38.12267456 49.98273376 37.28840942 49.14216431 36.42886353 48.27612305 C35.52676147 47.37806946 34.62465942 46.48001587 33.69522095 45.55474854 C32.7705603 44.62817444 31.84589966 43.70160034 30.89321899 42.74694824 C28.93950396 40.79028983 26.98222983 38.83728211 25.02236938 36.88677979 C22.50687889 34.382715 20.00051546 31.8697363 17.49671936 29.35398483 C15.10939454 26.9577141 12.71449906 24.56907204 10.32022095 22.17974854 C9.4181189 21.27359802 8.51601685 20.36744751 7.58657837 19.43383789 C6.33518066 18.19189667 6.33518066 18.19189667 5.0585022 16.92486572 C4.32285034 16.19080505 3.58719849 15.45674438 2.82925415 14.70043945 C-0.83593363 11.54627052 -2.3340336 14.20832673 -5.27426147 17.10845947 Z " fill="#03ABB3" transform="translate(347.9922790527344,93.86712646484375)" data-index="4" style="opacity: 1;"></path>
<path d="M0 0 C2.97 0 5.94 0 9 0 C13.18245885 8.25643895 17.25107281 16.53468054 21 25 C23.61442983 23.69278508 23.7601374 22.60334978 24.83984375 19.921875 C25.18080078 19.09042969 25.52175781 18.25898438 25.87304688 17.40234375 C26.22431641 16.52707031 26.57558594 15.65179688 26.9375 14.75 C27.96127244 12.2162107 28.99300494 9.68947207 30.06982422 7.17773438 C30.81573634 5.43139943 31.51195703 3.66387608 32.19140625 1.890625 C32.78824219 1.26671875 33.38507812 0.6428125 34 0 C36.97 0 39.94 0 43 0 C43 13.2 43 26.4 43 40 C40.03 40 37.06 40 34 40 C33.67 34.39 33.34 28.78 33 23 C30.69 28.61 28.38 34.22 26 40 C23.03 40 20.06 40 17 40 C14.69 34.39 12.38 28.78 10 23 C9.67 28.61 9.34 34.22 9 40 C6.03 40 3.06 40 0 40 C0 26.8 0 13.6 0 0 Z " fill="#393E47" transform="translate(552,299)" data-index="5" style="opacity: 1; visibility: visible;"></path>
<path d="M0 0 C5.00874265 2.80298476 8.48650067 6.24846645 10.2265625 11.88671875 C11.45056319 18.18672231 11.06096032 23.50564206 7.90234375 29.1484375 C5.1673703 32.9790731 1.51401547 35.34482302 -2.375 37.9375 C-5.7734375 38.23828125 -5.7734375 38.23828125 -9.75 38.25 C-11.05710938 38.26675781 -12.36421875 38.28351563 -13.7109375 38.30078125 C-19.93604092 37.68358016 -23.27809051 34.46566312 -27.375 29.9375 C-31.6088947 24.06335553 -31.35313124 17.91851735 -30.375 10.9375 C-28.02842239 5.82978274 -24.00128747 2.06336991 -19.375 -1.0625 C-12.83332486 -3.24305838 -6.26299777 -2.86388954 0 0 Z M-18.4375 9.3125 C-21.6716588 13.69426353 -21.52859901 16.14472282 -20.9609375 21.453125 C-20.11490212 25.04031503 -18.2313216 26.72385076 -15.375 28.9375 C-15.045 29.2675 -14.715 29.5975 -14.375 29.9375 C-9.25304863 30.5441518 -9.25304863 30.5441518 -4.546875 28.890625 C-1.58359893 26.445203 0.44414277 24.61265301 0.86328125 20.73046875 C1.04411529 15.01891975 1.04411529 15.01891975 -1.25 9.875 C-4.9739965 6.47959143 -7.99771642 6.54984229 -12.890625 6.578125 C-15.68365776 6.77358381 -15.68365776 6.77358381 -18.4375 9.3125 Z " fill="#383D46" transform="translate(204.375,301.0625)" data-index="6" style="opacity: 1;"></path>
<path d="M0 0 C3.3 0 6.6 0 10 0 C10 5.28 10 10.56 10 16 C14.62 16 19.24 16 24 16 C24 10.72 24 5.44 24 0 C27.3 0 30.6 0 34 0 C34 13.2 34 26.4 34 40 C31.03 40 28.06 40 25 40 C25 34.72 25 29.44 25 24 C19.72 24 14.44 24 9 24 C9 29.28 9 34.56 9 40 C6.03 40 3.06 40 0 40 C0 26.8 0 13.6 0 0 Z " fill="#3F444C" transform="translate(134,299)" data-index="7"></path>
<path d="M0 0 C3.56764285 1.51376081 5.83706287 3.60513129 8.546875 6.3515625 C9.39121094 7.20234375 10.23554688 8.053125 11.10546875 8.9296875 C12.41451172 10.26386719 12.41451172 10.26386719 13.75 11.625 C14.63816406 12.5221875 15.52632813 13.419375 16.44140625 14.34375 C18.63216969 16.55807004 20.81812763 18.77692435 23 21 C20.57728127 26.63454697 15.88175667 30.52740693 11.625 34.8125 C10.76132812 35.70904297 9.89765625 36.60558594 9.0078125 37.52929688 C8.1725 38.37169922 7.3371875 39.21410156 6.4765625 40.08203125 C5.3330835 41.24569214 5.3330835 41.24569214 4.16650391 42.43286133 C2 44 2 44 -0.10668945 43.89746094 C-3.24097899 42.41175516 -5.44245584 39.9062337 -7.8125 37.4375 C-8.34004883 36.89899414 -8.86759766 36.36048828 -9.41113281 35.80566406 C-13.43027179 31.67317107 -17.30382439 27.42499897 -21 23 C-19.48623919 19.43235715 -17.39486871 17.16293713 -14.6484375 14.453125 C-13.79765625 13.60878906 -12.946875 12.76445312 -12.0703125 11.89453125 C-11.18085938 11.02183594 -10.29140625 10.14914063 -9.375 9.25 C-8.4778125 8.36183594 -7.580625 7.47367188 -6.65625 6.55859375 C-4.44192996 4.36783031 -2.22307565 2.18187237 0 0 Z M-2.82421875 15.53125 C-3.74654297 16.50578125 -3.74654297 16.50578125 -4.6875 17.5 C-5.31011719 18.1496875 -5.93273437 18.799375 -6.57421875 19.46875 C-7.04472656 19.9740625 -7.51523437 20.479375 -8 21 C-6.67080708 23.96810069 -5.22137857 26.00563789 -2.875 28.25 C-1.451875 29.61125 -1.451875 29.61125 0 31 C3.82792868 29.4404735 6.36359864 27.16368164 9 24 C8.69352065 20.72653973 7.42578185 19.01644182 5.125 16.75 C4.61195313 16.22921875 4.09890625 15.7084375 3.5703125 15.171875 C1.03747315 13.28169638 -0.46816172 13.55357472 -2.82421875 15.53125 Z " fill="#02ABB3" transform="translate(347,130)" data-index="8" style="opacity: 1;"></path>
<path d="M0 0 C20.25506285 0 20.25506285 0 24.65234375 3.5859375 C27.96754593 7.06449747 28.89882749 9.08944743 29.4375 13.9375 C29.2509414 19.13168409 26.5877042 22.4122958 23 26 C23.5775 26.84304688 24.155 27.68609375 24.75 28.5546875 C25.50024193 29.66129435 26.25022874 30.76807419 27 31.875 C28.11375 33.51082031 28.11375 33.51082031 29.25 35.1796875 C31 38 31 38 31 40 C27.80813695 40.65140062 25.1674659 40.84331897 22 40 C18.55117194 36.49400905 16.18954994 32.37909987 14 28 C12.35 27.67 10.7 27.34 9 27 C9 31.29 9 35.58 9 40 C6.03 40 3.06 40 0 40 C0 26.8 0 13.6 0 0 Z M9 9 C9 12.3 9 15.6 9 19 C13.50225924 19.09214858 13.50225924 19.09214858 18 19 C19.20561184 18.01732141 19.20561184 18.01732141 19.09765625 16.15234375 C19.08605469 15.42144531 19.07445312 14.69054687 19.0625 13.9375 C19.041875 12.638125 19.02125 11.33875 19 10 C16.71294169 8.85647084 15.40735238 8.89665561 12.875 8.9375 C10.956875 8.9684375 10.956875 8.9684375 9 9 Z " fill="#383D46" transform="translate(439,299)" data-index="9" style="opacity: 1;"></path>
<path d="M0 0 C2.97 0 5.94 0 9 0 C9 5.28 9 10.56 9 16 C13.95 16 18.9 16 24 16 C24 10.72 24 5.44 24 0 C26.97 0 29.94 0 33 0 C33 13.2 33 26.4 33 40 C30.03 40 27.06 40 24 40 C24 34.72 24 29.44 24 24 C18.72 24 13.44 24 8 24 C8 29.28 8 34.56 8 40 C5.36 40 2.72 40 0 40 C0 26.8 0 13.6 0 0 Z " fill="#383D46" transform="translate(303,299)" data-index="10" style="opacity: 1;"></path>
<path d="M0 0 C1.93359375 1.0859375 1.93359375 1.0859375 4.68359375 3.0859375 C3.09450148 7.32351688 3.09450148 7.32351688 0.68359375 9.0859375 C-2.5234375 9.30859375 -2.5234375 9.30859375 -6.25390625 9.1484375 C-11.72851138 8.86468679 -11.72851138 8.86468679 -16.69140625 10.9609375 C-19.4626144 16.29018393 -18.96858413 21.4228778 -17.56640625 27.1484375 C-16.49342488 29.18152775 -16.49342488 29.18152775 -14.62890625 29.8984375 C-6.98095197 30.52678055 -6.98095197 30.52678055 -0.31640625 27.0859375 C0.01359375 26.4259375 0.34359375 25.7659375 0.68359375 25.0859375 C-2.28640625 25.0859375 -5.25640625 25.0859375 -8.31640625 25.0859375 C-8.31640625 22.7759375 -8.31640625 20.4659375 -8.31640625 18.0859375 C-2.70640625 18.0859375 2.90359375 18.0859375 8.68359375 18.0859375 C9.02249953 29.43928097 9.02249953 29.43928097 4.30859375 34.7734375 C-0.75273433 39.23222652 -4.6408809 39.52769561 -11.2734375 39.3984375 C-17.12594434 38.79740984 -21.2944406 36.51981635 -25.19140625 32.1484375 C-29.28465586 26.24934247 -30.30215261 21.20874994 -29.31640625 14.0859375 C-27.21084966 7.41656029 -23.24100834 3.39189966 -17.13671875 0.12109375 C-11.52972111 -1.9368763 -5.60572854 -2.21204128 0 0 Z " fill="#373D45" transform="translate(287.31640625,299.9140625)" data-index="11" style="opacity: 1;"></path>
<path d="M0 0 C2.97 0 5.94 0 9 0 C10.89967508 4.08155648 12.79401162 8.1655702 14.6875 12.25 C15.48317383 13.95929688 15.48317383 13.95929688 16.29492188 15.703125 C26 36.66133052 26 36.66133052 26 40 C24.56510191 40.13536774 23.12652893 40.23217143 21.6875 40.3125 C20.88699219 40.37050781 20.08648438 40.42851562 19.26171875 40.48828125 C18.51535156 40.32714844 17.76898437 40.16601562 17 40 C16.608125 39.175 16.21625 38.35 15.8125 37.5 C14.30344634 34.82626001 14.30344634 34.82626001 11.98950195 34.58862305 C9.41512542 34.50744089 6.88520635 34.56516941 4.3125 34.6875 C2.97348633 34.72133789 2.97348633 34.72133789 1.60742188 34.75585938 C-0.59674272 34.81479426 -2.79752672 34.89699182 -5 35 C-5.99 37.475 -5.99 37.475 -7 40 C-10.3 40 -13.6 40 -17 40 C-13.40365643 30.21379585 -9.28680541 20.71910796 -4.99951172 11.22070312 C-3.31889677 7.48673302 -1.66063148 3.74289323 0 0 Z M4 12 C3.16235732 13.95649397 2.33000941 15.91525556 1.5 17.875 C1.0359375 18.96554687 0.571875 20.05609375 0.09375 21.1796875 C-1.12052456 23.80661929 -1.12052456 23.80661929 -1 26 C2.96 26 6.92 26 11 26 C10.2169216 23.85101768 9.42328757 21.70587905 8.625 19.5625 C8.18414063 18.36753906 7.74328125 17.17257812 7.2890625 15.94140625 C6.32914764 12.89803102 6.32914764 12.89803102 4 12 Z " fill="#3B4149" transform="translate(521,299)" data-index="12" style="opacity: 1; visibility: visible;"></path>
<path d="M0 0 C2.97 0 5.94 0 9 0 C9.01981934 0.86802246 9.03963867 1.73604492 9.06005859 2.63037109 C9.13809872 5.84726267 9.22478881 9.06377045 9.31738281 12.28027344 C9.35569327 13.67308572 9.39054259 15.06599765 9.421875 16.45898438 C9.46747907 18.45986308 9.52651623 20.46042146 9.5859375 22.4609375 C9.6173584 23.66540527 9.6487793 24.86987305 9.68115234 26.11083984 C9.70915226 29.1260018 9.70915226 29.1260018 12 31 C15.5 31.33333333 15.5 31.33333333 19 31 C21.79177569 28.20822431 21.31213484 26.36816428 21.4140625 22.4609375 C21.45273438 21.15898437 21.49140625 19.85703125 21.53125 18.515625 C21.56270763 17.13542138 21.59395491 15.75521296 21.625 14.375 C21.66317934 12.98695459 21.70223105 11.59893289 21.7421875 10.2109375 C21.83672943 6.80742815 21.92227897 3.40392835 22 0 C24.97 0 27.94 0 31 0 C31.07468157 4.00178342 31.12885021 8.00329167 31.16479492 12.00561523 C31.17979409 13.36441117 31.20020038 14.72315941 31.22631836 16.08178711 C31.49337595 30.34056809 31.49337595 30.34056809 28 36 C22.52938965 40.33089986 17.9123008 41.57826641 11 41 C8 40 8 40 6 39 C6 38.34 6 37.68 6 37 C5.34 37 4.68 37 4 37 C-1.31648943 30.20787079 -0.45299757 22.7676236 -0.25 14.5625 C-0.2299083 13.14911379 -0.21166223 11.73570007 -0.1953125 10.32226562 C-0.15151817 6.88093317 -0.08263903 3.44064425 0 0 Z " fill="#363C45" transform="translate(221,299)" data-index="13" style="opacity: 1;"></path>
<path d="M0 0 C8.25 0 16.5 0 25 0 C25 2.97 25 5.94 25 9 C19.72 9 14.44 9 9 9 C9 11.31 9 13.62 9 16 C12.96 16 16.92 16 21 16 C21 18.64 21 21.28 21 24 C17.04 24 13.08 24 9 24 C9 26.64 9 29.28 9 32 C14.28 32 19.56 32 25 32 C25 34.64 25 37.28 25 40 C16.75 40 8.5 40 0 40 C0 26.8 0 13.6 0 0 Z " fill="#383D46" transform="translate(476,299)" data-index="14" style="opacity: 1;"></path>
<path d="M0 0 C2.28251966 2.05426769 3.47893505 3.39101815 4.5 6.25 C2.19 7.57 -0.12 8.89 -2.5 10.25 C-2.850625 9.755 -3.20125 9.26 -3.5625 8.75 C-6.44374289 6.51936034 -8.97009026 7.05019379 -12.5 7.25 C-12.36817979 9.699941 -12.36817979 9.699941 -11.5 12.25 C-9.41033561 13.54584935 -9.41033561 13.54584935 -6.8125 14.25 C-1.71578531 16.04626334 2.96057437 18.17114873 5.5 23.25 C5.63101085 28.01318009 5.18047955 31.36159615 2.25 35.1875 C-2.69418953 38.89564215 -6.3115621 39.68427634 -12.5 39.25 C-18.12606179 38.12478764 -20.38717201 35.87207792 -23.5 31.25 C-22.5 28.25 -22.5 28.25 -19.75 26.8125 C-18.6775 26.626875 -17.605 26.44125 -16.5 26.25 C-13.9375 28.125 -13.9375 28.125 -11.5 30.25 C-8.83071879 30.66870553 -8.83071879 30.66870553 -6.5 30.25 C-5.20366379 29.18354885 -5.20366379 29.18354885 -5.4375 26.6875 C-5.458125 25.883125 -5.47875 25.07875 -5.5 24.25 C-6.08007812 24.00765625 -6.66015625 23.7653125 -7.2578125 23.515625 C-19.02080123 18.46879815 -19.02080123 18.46879815 -22.5 13.25 C-22.97824275 9.02552239 -22.75508999 6.7507322 -20.8125 2.9375 C-15.53535695 -3.19539597 -7.00998089 -3.50499044 0 0 Z " fill="#383D46" transform="translate(396.5,300.75)" data-index="15" style="opacity: 1;"></path>
<path d="M0 0 C9.57 0 19.14 0 29 0 C29 2.97 29 5.94 29 9 C26.03 9 23.06 9 20 9 C20 19.23 20 29.46 20 40 C16.7 40 13.4 40 10 40 C10 29.77 10 19.54 10 9 C6.7 9 3.4 9 0 9 C0 6.03 0 3.06 0 0 Z " fill="#444951" transform="translate(404,299)" data-index="16" style="opacity: 1;"></path>
<path d="M0 0 C9.57 0 19.14 0 29 0 C29 2.97 29 5.94 29 9 C25.7 9 22.4 9 19 9 C19 19.23 19 29.46 19 40 C16.03 40 13.06 40 10 40 C10 29.77 10 19.54 10 9 C6.7 9 3.4 9 0 9 C0 6.03 0 3.06 0 0 Z " fill="#3D424A" transform="translate(100,299)" data-index="17"></path>
<path d="M0 0 C1.16781006 0.00523682 2.33562012 0.01047363 3.53881836 0.01586914 C4.79887695 0.0190918 6.05893555 0.02231445 7.35717773 0.02563477 C8.6976732 0.03399136 10.03816799 0.04245632 11.37866211 0.05102539 C12.72306153 0.05603879 14.06746271 0.06060197 15.41186523 0.06469727 C18.71334151 0.07653051 22.01473014 0.09301568 25.31616211 0.11352539 C25.31616211 3.08352539 25.31616211 6.05352539 25.31616211 9.11352539 C22.01616211 9.11352539 18.71616211 9.11352539 15.31616211 9.11352539 C15.31616211 19.34352539 15.31616211 29.57352539 15.31616211 40.11352539 C12.34616211 40.11352539 9.37616211 40.11352539 6.31616211 40.11352539 C6.31616211 29.88352539 6.31616211 19.65352539 6.31616211 9.11352539 C3.01616211 9.11352539 -0.28383789 9.11352539 -3.68383789 9.11352539 C-3.78149414 2.96118164 -3.78149414 2.96118164 -3.68383789 1.11352539 C-2.68383789 0.11352539 -2.68383789 0.11352539 0 0 Z " fill="#3E434B" transform="translate(344.683837890625,298.886474609375)" data-index="18" style="opacity: 1;"></path>

<path d="M0 0 C3.2435771 0.31076188 5.022719 1.56817371 7.3125 3.8125 C7.84488281 4.31394531 8.37726563 4.81539062 8.92578125 5.33203125 C10 7 10 7 9.859375 8.99609375 C8.87388433 11.29407881 7.75696115 12.54667467 5.9375 14.25 C5.38964844 14.77078125 4.84179688 15.2915625 4.27734375 15.828125 C3.85582031 16.21484375 3.43429687 16.6015625 3 17 C-1.29238623 15.34908222 -3.8793915 12.26245434 -7 9 C-5.4404735 5.17207132 -3.16368164 2.63640136 0 0 Z " fill="#F7FCFC" transform="translate(346,144)" data-index="20" style="opacity: 1; visibility: hidden;"></path>

<path d="" fill="#01ABB3" transform="translate(0,0)" data-index="22"></path>

<path d="" fill="#FAFDFD" transform="translate(0,0)" data-index="24"></path>
</svg>